<?xml version="1.0" encoding="UTF-8" standalone="no"?>
<svg
   xmlns:dc="http://purl.org/dc/elements/1.1/"
   xmlns:cc="http://creativecommons.org/ns#"
   xmlns:rdf="http://www.w3.org/1999/02/22-rdf-syntax-ns#"
   xmlns:svg="http://www.w3.org/2000/svg"
   xmlns="http://www.w3.org/2000/svg"
   xmlns:sodipodi="http://sodipodi.sourceforge.net/DTD/sodipodi-0.dtd"
   xmlns:inkscape="http://www.inkscape.org/namespaces/inkscape"
   version="1.1"
   id="svg999"
   width="128"
   height="128"
   viewBox="0 0 128 128"
   sodipodi:docname="fy-favicon.svg"
   inkscape:version="1.0.1 (3bc2e813f5, 2020-09-07)">
  <metadata
     id="metadata1005">
    <rdf:RDF>
      <cc:Work
         rdf:about="">
        <dc:format>image/svg+xml</dc:format>
        <dc:type
           rdf:resource="http://purl.org/dc/dcmitype/StillImage" />
        <dc:title></dc:title>
      </cc:Work>
    </rdf:RDF>
  </metadata>
  <defs
     id="defs1003" />
  <sodipodi:namedview
     pagecolor="#ffffff"
     bordercolor="#666666"
     borderopacity="1"
     objecttolerance="10"
     gridtolerance="10"
     guidetolerance="10"
     inkscape:pageopacity="0"
     inkscape:pageshadow="2"
     inkscape:window-width="1920"
     inkscape:window-height="991"
     id="namedview1001"
     showgrid="false"
     inkscape:zoom="3.4789653"
     inkscape:cx="119.35307"
     inkscape:cy="95.330452"
     inkscape:window-x="-9"
     inkscape:window-y="-9"
     inkscape:window-maximized="1"
     inkscape:current-layer="g1007" />
  <g
     inkscape:groupmode="layer"
     inkscape:label="Image"
     id="g1007">
    <path
       id="path1015"
       style="fill:#000000;stroke:#000000;stroke-width:0.974991;stroke-miterlimit:10"
       d="M 63.999986,2.1200969 A 61.879862,61.879862 0 0 0 2.1200878,63.999997 61.879862,61.879862 0 0 0 63.999986,125.8799 61.879862,61.879862 0 0 0 125.87991,63.999997 61.879862,61.879862 0 0 0 63.999986,2.1200969 Z M 55.036938,23.926363 c 3.680444,0 6.493842,1.051358 8.941348,3.340872 1.815987,1.698758 2.3935,2.958393 1.983491,4.326905 -0.346386,1.156106 -1.290367,2.272389 -2.266089,2.680076 -1.674313,0.699576 -3.104701,-0.178765 -5.696075,-3.497397 -1.87418,-2.400152 -3.050263,-3.416612 -4.515805,-3.903394 -2.964435,-0.984615 -5.876893,0.600645 -6.917482,3.765144 -0.369131,1.122535 -0.814014,7.9108 -0.818084,12.48597 l -0.0023,2.46604 H 58.838233 71.93015 l -0.07308,0.505397 c -0.0617,0.425633 -0.30112,0.546429 -1.516955,0.765521 -2.279897,0.410831 -3.249379,1.378882 -3.255937,3.251748 -0.0058,1.714817 0.753863,3.502546 6.85122,16.123903 3.404461,7.04711 4.206872,8.514847 4.496755,8.224963 0.215011,-0.214998 4.123579,-9.897164 6.861882,-16.997973 2.564184,-6.649265 2.913572,-7.961133 2.432139,-9.123397 -0.341214,-0.823737 -0.831714,-1.124189 -2.403202,-1.472006 -0.920486,-0.203727 -1.165854,-0.357237 -1.224457,-0.766284 l -0.07355,-0.511872 h 6.455496 6.455121 l -0.07355,0.503497 c -0.05501,0.377728 -0.411969,0.634369 -1.430119,1.02792 -0.746414,0.288523 -1.608308,0.758836 -1.915317,1.045071 -0.973939,0.908041 -1.082571,1.157842 -10.558078,24.263929 -8.985921,21.912249 -9.399673,22.851008 -11.172787,25.349373 -1.8596,2.620241 -4.828785,4.925921 -7.508567,5.830901 -1.494868,0.50483 -4.035298,0.616 -5.349501,0.23384 -0.947477,-0.27552 -2.487247,-1.6323 -2.94325,-2.59325 -0.566768,-1.19436 -0.486758,-2.854678 0.185474,-3.843961 1.1665,-1.716662 3.293307,-2.042863 6.78152,-1.039734 3.197872,0.919621 3.335019,0.931381 4.476193,0.378948 1.95121,-0.94457 3.288181,-3.071048 5.824811,-9.263547 0.769346,-1.878168 1.398882,-3.585231 1.398882,-3.793707 0,-0.947501 -14.423315,-30.493073 -16.330715,-33.452839 l -1.219119,-1.891716 -5.677799,-7.74e-4 -5.677788,-0.0012 0.01642,8.660274 c 0.0094,4.763049 0.0976,11.911799 0.197287,15.886254 0.203914,8.131112 0.290328,8.589882 1.876479,9.947569 1.12718,0.964836 2.229187,1.292501 4.360031,1.296432 2.090856,0.0035 2.651478,0.145592 2.798149,0.706483 0.111552,0.426385 -0.190881,0.437611 -11.793197,0.437611 -11.508898,0 -11.907459,-0.01466 -11.907459,-0.432273 0,-0.504623 0.591461,-0.707365 2.076815,-0.711821 2.331262,-0.007 4.559229,-1.88285 5.013965,-4.221782 0.125851,-0.647365 0.297989,-7.977214 0.384286,-16.370315 L 38.924797,48.34333 h -3.930432 -3.930432 v -1.376407 -1.376418 h 3.781133 c 4.430094,0 3.935828,0.470114 4.099907,-3.899958 0.231244,-6.158635 1.71362,-9.932378 5.253151,-13.372228 1.253078,-1.217782 2.110421,-1.801442 3.926995,-2.674363 2.851932,-1.370436 4.247987,-1.717667 6.911769,-1.717667 z" />
  </g>
</svg>
