<?xml version="1.0" encoding="UTF-8" standalone="no"?>
<svg
   xmlns:dc="http://purl.org/dc/elements/1.1/"
   xmlns:cc="http://creativecommons.org/ns#"
   xmlns:rdf="http://www.w3.org/1999/02/22-rdf-syntax-ns#"
   xmlns:svg="http://www.w3.org/2000/svg"
   xmlns="http://www.w3.org/2000/svg"
   xmlns:sodipodi="http://sodipodi.sourceforge.net/DTD/sodipodi-0.dtd"
   xmlns:inkscape="http://www.inkscape.org/namespaces/inkscape"
   version="1.1"
   id="svg999"
   width="666.66669"
   height="666.66669"
   viewBox="0 0 666.66669 666.66669"
   sodipodi:docname="fy-favicon.svg"
   inkscape:version="1.0.1 (3bc2e813f5, 2020-09-07)">
  <metadata
     id="metadata1005">
    <rdf:RDF>
      <cc:Work
         rdf:about="">
        <dc:format>image/svg+xml</dc:format>
        <dc:type
           rdf:resource="http://purl.org/dc/dcmitype/StillImage" />
        <dc:title></dc:title>
      </cc:Work>
    </rdf:RDF>
  </metadata>
  <defs
     id="defs1003" />
  <sodipodi:namedview
     pagecolor="#ffffff"
     bordercolor="#666666"
     borderopacity="1"
     objecttolerance="10"
     gridtolerance="10"
     guidetolerance="10"
     inkscape:pageopacity="0"
     inkscape:pageshadow="2"
     inkscape:window-width="1920"
     inkscape:window-height="991"
     id="namedview1001"
     showgrid="false"
     inkscape:zoom="0.61499998"
     inkscape:cx="412.48408"
     inkscape:cy="335.53339"
     inkscape:window-x="-9"
     inkscape:window-y="-9"
     inkscape:window-maximized="1"
     inkscape:current-layer="g1007" />
  <g
     inkscape:groupmode="layer"
     inkscape:label="Image"
     id="g1007">
    <path
       id="path1015"
       style="fill:#000000;stroke:#000000;stroke-width:5;stroke-miterlimit:10"
       d="M 333.33398 15.998047 A 317.33572 317.33572 0 0 0 15.998047 333.33398 A 317.33572 317.33572 0 0 0 333.33398 650.66992 A 317.33572 317.33572 0 0 0 650.66992 333.33398 A 317.33572 317.33572 0 0 0 333.33398 15.998047 z M 287.36914 127.82617 C 306.2434 127.82617 320.67127 133.21776 333.22266 144.95898 C 342.53551 153.67068 345.49719 160.13036 343.39453 167.14844 C 341.6182 173.07727 336.77717 178.80188 331.77344 180.89258 C 323.18712 184.48017 315.85174 179.97581 302.5625 162.95703 C 292.95126 150.64844 286.92 145.43576 279.4043 142.93945 C 264.20197 137.89005 249.26612 146.01968 243.92969 162.24805 C 242.03671 168.00471 239.75523 202.81663 239.73438 226.2793 L 239.72266 238.92578 L 306.86328 238.92578 L 374.00195 238.92578 L 373.62695 241.51758 C 373.31037 243.70031 372.08278 244.31983 365.84766 245.44336 C 354.15572 247.55021 349.18398 252.51462 349.15039 262.11914 C 349.11969 270.91315 353.01634 280.08111 384.28516 344.80664 C 401.74409 380.94604 405.85908 388.47294 407.3457 386.98633 C 408.44831 385.88377 428.49242 336.23115 442.53516 299.81641 C 455.68494 265.71726 457.47671 258.98968 455.00781 253.0293 C 453.25802 248.80497 450.7426 247.26419 442.68359 245.48047 C 437.96312 244.4357 436.70481 243.64846 436.4043 241.55078 L 436.02734 238.92578 L 469.13281 238.92578 L 502.23633 238.92578 L 501.85938 241.50781 C 501.57738 243.4449 499.74673 244.76102 494.52539 246.7793 C 490.69755 248.2589 486.27753 250.67079 484.70312 252.13867 C 479.70853 256.79532 479.15143 258.07637 430.55859 376.57031 C 384.4765 488.94184 382.35468 493.75607 373.26172 506.56836 C 363.72522 520.0056 348.49847 531.82974 334.75586 536.4707 C 327.08978 539.05957 314.06184 539.6297 307.32227 537.66992 C 302.46335 536.257 294.56702 529.29911 292.22852 524.37109 C 289.322 518.24604 289.73231 509.73147 293.17969 504.6582 C 299.16181 495.85474 310.06861 494.18194 327.95703 499.32617 C 344.35658 504.04223 345.05985 504.10256 350.91211 501.26953 C 360.91843 496.42556 367.77476 485.52044 380.7832 453.76367 C 384.7286 444.13198 387.95703 435.37774 387.95703 434.30859 C 387.95703 429.44957 313.99062 277.93231 304.20898 262.75391 L 297.95703 253.05273 L 268.83984 253.04883 L 239.72266 253.04297 L 239.80664 297.45508 C 239.85184 321.88119 240.30721 358.54178 240.81836 378.92383 C 241.86407 420.62222 242.30722 422.97495 250.44141 429.9375 C 256.2219 434.8854 261.87328 436.56574 272.80078 436.58594 C 283.52324 436.60584 286.39821 437.33257 287.15039 440.20898 C 287.7222 442.39558 286.17151 442.45312 226.67188 442.45312 C 167.6513 442.45312 165.60742 442.37783 165.60742 440.23633 C 165.60742 437.6485 168.64056 436.60879 176.25781 436.58594 C 188.21314 436.55004 199.63871 426.93021 201.9707 414.93555 C 202.61614 411.61572 203.49889 374.02635 203.94141 330.98438 L 204.74219 253.04297 L 184.58594 253.04297 L 164.42969 253.04297 L 164.42969 245.98438 L 164.42969 238.92578 L 183.82031 238.92578 C 206.53895 238.92578 204.00424 241.33661 204.8457 218.92578 C 206.03157 187.34277 213.63355 167.99004 231.78516 150.34961 C 238.21126 144.1045 242.60793 141.11133 251.92383 136.63477 C 266.54922 129.60683 273.70858 127.82617 287.36914 127.82617 z " />
  </g>
</svg>
