<?xml version="1.0" encoding="UTF-8" standalone="no"?>
<svg
   xmlns:dc="http://purl.org/dc/elements/1.1/"
   xmlns:cc="http://creativecommons.org/ns#"
   xmlns:rdf="http://www.w3.org/1999/02/22-rdf-syntax-ns#"
   xmlns:svg="http://www.w3.org/2000/svg"
   xmlns="http://www.w3.org/2000/svg"
   xmlns:sodipodi="http://sodipodi.sourceforge.net/DTD/sodipodi-0.dtd"
   xmlns:inkscape="http://www.inkscape.org/namespaces/inkscape"
   version="1.1"
   id="svg999"
   width="128"
   height="128"
   viewBox="0 0 128 128"
   sodipodi:docname="fy-favicon.svg"
   inkscape:version="1.0.1 (3bc2e813f5, 2020-09-07)">
  <metadata
     id="metadata1005">
    <rdf:RDF>
      <cc:Work
         rdf:about="">
        <dc:format>image/svg+xml</dc:format>
        <dc:type
           rdf:resource="http://purl.org/dc/dcmitype/StillImage" />
        <dc:title></dc:title>
      </cc:Work>
    </rdf:RDF>
  </metadata>
  <defs
     id="defs1003" />
  <sodipodi:namedview
     pagecolor="#ffffff"
     bordercolor="#666666"
     borderopacity="1"
     objecttolerance="10"
     gridtolerance="10"
     guidetolerance="10"
     inkscape:pageopacity="0"
     inkscape:pageshadow="2"
     inkscape:window-width="1920"
     inkscape:window-height="991"
     id="namedview1001"
     showgrid="false"
     inkscape:zoom="3.4789653"
     inkscape:cx="119.35307"
     inkscape:cy="94.755569"
     inkscape:window-x="-9"
     inkscape:window-y="-9"
     inkscape:window-maximized="1"
     inkscape:current-layer="g1007" />
  <g
     inkscape:groupmode="layer"
     inkscape:label="Image"
     id="g1007">
    <path
       id="path1015"
       style="fill:#000000;stroke:#000000;stroke-width:0.974991;stroke-miterlimit:10"
       d="M 63.999986,2.1200969 A 61.879862,61.879862 0 0 0 2.1200878,63.999997 61.879862,61.879862 0 0 0 63.999986,125.8799 61.879862,61.879862 0 0 0 125.87991,63.999997 61.879862,61.879862 0 0 0 63.999986,2.1200969 Z M 55.036938,23.926363 c 3.680444,0 6.493842,1.051358 8.941348,3.340872 1.815987,1.698758 2.3935,2.958393 1.983491,4.326905 -0.346386,1.156106 -1.290367,2.272389 -2.266089,2.680076 -1.674313,0.699576 -3.104701,-0.178765 -5.696075,-3.497397 -1.87418,-2.400152 -3.050263,-3.416612 -4.515805,-3.903394 -2.964435,-0.984615 -5.876893,0.600645 -6.917482,3.765144 -0.369131,1.122535 -0.814014,7.9108 -0.818084,12.48597 l -0.0023,2.46604 H 58.838233 71.93015 l -0.07308,0.505397 c -0.0617,0.425633 -0.30112,0.546429 -1.516955,0.765521 -2.279897,0.410831 -3.249379,1.378882 -3.255937,3.251748 -0.0058,1.714817 0.753863,3.502546 6.85122,16.123903 3.404461,7.04711 4.206872,8.514847 4.496755,8.224963 0.215011,-0.214998 4.123579,-9.897164 6.861882,-16.997973 2.564184,-6.649265 2.913572,-7.961133 2.432139,-9.123397 -0.341214,-0.823737 -0.831714,-1.124189 -2.403202,-1.472006 -0.920486,-0.203727 -1.165854,-0.357237 -1.224457,-0.766284 l -0.07355,-0.511872 h 6.455496 6.455121 l -0.07355,0.503497 c -0.05501,0.377728 -0.411969,0.634369 -1.430119,1.02792 -0.746414,0.288523 -1.608308,0.758836 -1.915317,1.045071 -0.973939,0.908041 -1.082571,1.157842 -10.558078,24.263929 -8.985921,21.912249 -9.399673,22.851008 -11.172787,25.349373 -1.8596,2.620241 -4.828785,4.925921 -7.508567,5.830901 -1.494868,0.50483 -4.035298,0.616 -5.349501,0.23384 -0.947477,-0.27552 -2.487247,-1.6323 -2.94325,-2.59325 -0.566768,-1.19436 -0.486758,-2.854678 0.185474,-3.843961 1.1665,-1.716662 3.293307,-2.042863 6.78152,-1.039734 3.197872,0.919621 3.335019,0.931381 4.476193,0.378948 1.95121,-0.94457 3.288181,-3.071048 5.824811,-9.263547 0.769346,-1.878168 1.398882,-3.585231 1.398882,-3.793707 0,-0.947501 -14.423315,-30.493073 -16.330715,-33.452839 l -1.219119,-1.891716 -5.677799,-7.74e-4 -5.677788,-0.0012 0.01642,8.660274 c 0.0094,4.763049 0.0976,11.911799 0.197287,15.886254 0.203914,8.131112 0.290328,8.589882 1.876479,9.947569 1.12718,0.964836 2.229187,1.292501 4.360031,1.296432 2.090856,0.0035 2.651478,0.145592 2.798149,0.706483 0.111552,0.426385 -0.190881,0.437611 -11.793197,0.437611 -11.508898,0 -11.907459,-0.01466 -11.907459,-0.432273 0,-0.504623 0.591461,-0.707365 2.076815,-0.711821 2.331262,-0.007 4.559229,-1.88285 5.013965,-4.221782 0.125851,-0.647365 0.297989,-7.977214 0.384286,-16.370315 L 38.924797,48.34333 h -3.930432 -3.930432 v -1.376407 -1.376418 h 3.781133 c 4.430094,0 3.935828,0.470114 4.099907,-3.899958 0.231244,-6.158635 1.71362,-9.932378 5.253151,-13.372228 1.253078,-1.217782 2.110421,-1.801442 3.926995,-2.674363 2.851932,-1.370436 4.247987,-1.717667 6.911769,-1.717667 z" />
    <path
       style="fill:#ffffff;stroke:#000000;stroke-width:0;stroke-miterlimit:10;stroke-dasharray:none"
       d="m 58.84657,103.06273 c -1.118897,-0.65345 -2.146528,-1.80295 -2.459466,-2.75117 -0.261434,-0.79215 -0.224841,-1.148428 0.208936,-2.034272 0.931889,-1.90306 2.678401,-2.239281 6.348715,-1.222185 3.571426,0.989694 4.835725,0.726391 6.764755,-1.408816 1.145735,-1.268187 3.089936,-5.115098 4.646247,-9.193331 0.935706,-2.451967 0.972798,-2.677037 0.608681,-3.693532 C 73.828321,79.587742 61.129025,53.672468 58.834258,49.842789 l -1.334836,-2.227674 h -6.153168 -6.153169 l 0.01238,12.000695 c 0.01451,14.071957 0.302521,20.87053 0.935707,22.088021 0.574975,1.105568 1.559825,1.999604 2.79071,2.533386 0.930611,0.403565 0.449191,0.43621 -6.586563,0.446638 l -7.590556,0.01125 1.266838,-0.669061 c 0.831975,-0.439395 1.562844,-1.146982 2.129163,-2.06134 l 0.862325,-1.392279 0.189998,-6.490053 c 0.104498,-3.56953 0.20151,-10.984925 0.215581,-16.478656 l 0.02558,-9.988602 H 35.563783 31.683319 V 46.89651 46.177905 h 3.404752 c 4.299671,0 4.215965,0.07777 4.48584,-4.167906 0.407089,-6.40432 1.589636,-9.58509 4.749946,-12.776228 1.323829,-1.336742 2.514405,-2.203796 4.048743,-2.948554 2.984836,-1.44882 4.423246,-1.760086 7.387427,-1.598611 3.540682,0.19288 5.456094,0.989758 7.743415,3.22153 1.59604,1.557279 1.810567,1.896253 1.810567,2.860882 0,0.861226 -0.208145,1.30243 -0.977302,2.071588 -1.714484,1.714485 -2.59489,1.304507 -6.167151,-2.871856 -2.641404,-3.088089 -3.972505,-3.91177 -6.321575,-3.91177 -2.577602,0 -4.474804,1.236133 -5.534894,3.60629 -0.632264,1.413623 -1.120004,6.871143 -1.120004,12.532191 v 3.982444 l 12.431858,0.02471 c 6.837521,0.01359 12.100931,0.125122 11.696466,0.247853 -2.766667,0.839519 -3.476557,2.794835 -2.291661,6.312139 1.069074,3.1735 9.936932,21.453173 10.724462,22.106764 0.634424,0.526528 1.155749,0.174078 1.73785,-1.174901 1.620211,-3.754711 7.00752,-17.512218 8.002529,-20.435964 1.53815,-4.519715 1.29842,-6.095429 -1.030229,-6.771576 -0.606721,-0.176168 0.698736,-0.261124 4.144528,-0.269714 l 5.030232,-0.01254 -1.35269,0.704297 c -2.064993,1.075168 -1.514588,-0.09467 -12.300974,26.144744 -9.551894,23.236343 -9.777108,23.7003 -12.971198,26.721696 -2.577589,2.438217 -4.567094,3.384647 -7.397131,3.518897 -1.342758,0.0637 -2.418988,-0.0263 -2.770557,-0.23158 z"
       id="path1584" />
  </g>
</svg>
