<?xml version="1.0" encoding="UTF-8" standalone="no"?>
<svg
   xmlns:dc="http://purl.org/dc/elements/1.1/"
   xmlns:cc="http://creativecommons.org/ns#"
   xmlns:rdf="http://www.w3.org/1999/02/22-rdf-syntax-ns#"
   xmlns:svg="http://www.w3.org/2000/svg"
   xmlns="http://www.w3.org/2000/svg"
   xmlns:xlink="http://www.w3.org/1999/xlink"
   xmlns:sodipodi="http://sodipodi.sourceforge.net/DTD/sodipodi-0.dtd"
   xmlns:inkscape="http://www.inkscape.org/namespaces/inkscape"
   width="132"
   height="132"
   version="1.1"
   id="svg97"
   sodipodi:docname="Instagram_logo_2016.svg"
   inkscape:version="1.0.1 (3bc2e813f5, 2020-09-07)">
  <metadata
     id="metadata101">
    <rdf:RDF>
      <cc:Work
         rdf:about="">
        <dc:format>image/svg+xml</dc:format>
        <dc:type
           rdf:resource="http://purl.org/dc/dcmitype/StillImage" />
        <dc:title></dc:title>
      </cc:Work>
    </rdf:RDF>
  </metadata>
  <sodipodi:namedview
     pagecolor="#ffffff"
     bordercolor="#666666"
     borderopacity="1"
     objecttolerance="10"
     gridtolerance="10"
     guidetolerance="10"
     inkscape:pageopacity="0"
     inkscape:pageshadow="2"
     inkscape:window-width="1920"
     inkscape:window-height="991"
     id="namedview99"
     showgrid="false"
     inkscape:zoom="3.1060606"
     inkscape:cx="56.118957"
     inkscape:cy="68.219117"
     inkscape:window-x="-9"
     inkscape:window-y="-9"
     inkscape:window-maximized="1"
     inkscape:current-layer="svg97" />
  <defs
     id="defs89">
    <linearGradient
       id="b">
      <stop
         offset="0"
         stop-color="#3771c8"
         id="stop71" />
      <stop
         stop-color="#3771c8"
         offset=".128"
         id="stop73" />
      <stop
         offset="1"
         stop-color="#60f"
         stop-opacity="0"
         id="stop75" />
    </linearGradient>
    <linearGradient
       id="a">
      <stop
         offset="0"
         stop-color="#fd5"
         id="stop78" />
      <stop
         offset=".1"
         stop-color="#fd5"
         id="stop80" />
      <stop
         offset=".5"
         stop-color="#ff543e"
         id="stop82" />
      <stop
         offset="1"
         stop-color="#c837ab"
         id="stop84" />
    </linearGradient>
    <radialGradient
       id="c"
       cx="158.429"
       cy="578.08801"
       r="65"
       xlink:href="#a"
       gradientUnits="userSpaceOnUse"
       gradientTransform="matrix(0,-1.98198,1.8439,0,-1031.402,454.004)"
       fx="158.429"
       fy="578.08801" />
    <radialGradient
       id="d"
       cx="147.694"
       cy="473.45499"
       r="65"
       xlink:href="#b"
       gradientUnits="userSpaceOnUse"
       gradientTransform="matrix(0.17394,0.86872,-3.5818,0.71718,1648.348,-458.493)"
       fx="147.694"
       fy="473.45499" />
  </defs>
  <rect
     style="fill:#000000"
     id="rect105"
     width="135.22641"
     height="134.7711"
     x="-1.613205"
     y="-1.3855515" />
  <path
     fill="#ffffff"
     d="m 66.00449,18.09707 c -13.009636,0 -14.642329,0.05688 -19.751974,0.289413 -5.099665,0.233527 -8.580611,1.040891 -11.626439,2.22549 -3.150616,1.223521 -5.823203,2.860204 -8.485807,5.523807 -2.6646,2.662605 -4.301283,5.335189 -5.528796,8.484806 -1.187594,3.046826 -1.995956,6.52877 -2.22549,11.62644 -0.228537,5.109645 -0.288416,6.743334 -0.288416,19.752971 0,13.009637 0.05788,14.637337 0.289414,19.746983 0.234524,5.099666 1.041888,8.580614 2.22549,11.626442 1.224518,3.150618 2.861201,5.823208 5.524804,8.485798 2.661606,2.6646 5.334193,4.30528 8.482813,5.5288 3.047823,1.1846 6.529768,1.99196 11.628435,2.2255 5.109646,0.23252 6.74134,0.28941 19.749977,0.28941 13.010635,0 14.638337,-0.0569 19.747983,-0.28941 5.099665,-0.23354 8.584605,-1.0409 11.632431,-2.2255 3.149615,-1.22352 5.818215,-2.8642 8.479805,-5.5288 2.66461,-2.66259 4.30129,-5.33518 5.52881,-8.4848 1.17761,-3.046826 1.98597,-6.528772 2.22549,-11.626442 0.22953,-5.109646 0.28941,-6.738344 0.28941,-19.747981 0,-13.009637 -0.0599,-14.642328 -0.28941,-19.751973 -0.23952,-5.099667 -1.04788,-8.580612 -2.22549,-11.62644 -1.22752,-3.150615 -2.8642,-5.823199 -5.52881,-8.485804 -2.66459,-2.664601 -5.3292,-4.301284 -8.482802,-5.523807 C 94.322101,19.427374 90.839164,18.62001 85.739497,18.386483 80.629852,18.153955 79.003148,18.09707 65.989521,18.09707 Z m -4.297292,8.632507 c 1.275415,-0.002 2.698532,0 4.297292,0 12.79008,0 14.30601,0.04591 19.356774,0.275441 4.670535,0.213568 7.205398,0.993987 8.893978,1.649657 2.235469,0.868242 3.82924,1.906138 5.504844,3.58274 1.676594,1.676603 2.714504,3.273367 3.584744,5.508836 0.65566,1.686583 1.43708,4.221446 1.64965,8.891982 0.22954,5.049767 0.27943,6.566692 0.27943,19.350786 0,12.784093 -0.0499,14.30102 -0.27943,19.350787 -0.21357,4.670535 -0.99399,7.205398 -1.64965,8.89198 -0.86824,2.235473 -1.90815,3.827248 -3.584744,5.502854 -1.676602,1.6766 -3.268377,2.71449 -5.504844,3.58274 -1.686583,0.65867 -4.223442,1.43708 -8.893978,1.65065 -5.049767,0.22954 -6.566694,0.27944 -19.356774,0.27944 -12.79108,0 -14.307008,-0.05 -19.356774,-0.27944 -4.670536,-0.21557 -7.205399,-0.99598 -8.894975,-1.65165 -2.23547,-0.86824 -3.832235,-1.90614 -5.508837,-3.582743 -1.676602,-1.676601 -2.714501,-3.269374 -3.584738,-5.505843 -0.655671,-1.686582 -1.437088,-4.221445 -1.649657,-8.891981 -0.229535,-5.049766 -0.275442,-6.566692 -0.275442,-19.35877 0,-12.792077 0.04591,-14.301019 0.275442,-19.350786 0.213568,-4.670535 0.993986,-7.205399 1.649657,-8.893977 0.868241,-2.235469 1.908136,-3.832235 3.584738,-5.508836 1.676602,-1.676603 3.273368,-2.7145 5.508837,-3.584736 1.688578,-0.658665 4.224439,-1.437088 8.894975,-1.651653 4.419045,-0.199595 6.131574,-0.259474 15.059482,-0.269453 z m 29.867475,7.953881 c -3.173569,0 -5.748352,2.571788 -5.748352,5.746356 0,3.173568 2.574783,5.748351 5.748352,5.748351 3.173567,0 5.74835,-2.574783 5.74835,-5.748351 0,-3.173569 -2.574783,-5.748351 -5.74835,-5.748351 z m -25.570183,6.71639 c -13.58547,0 -24.600149,11.014679 -24.600149,24.600149 0,13.585469 11.014679,24.595159 24.600149,24.595159 13.585468,0 24.596156,-11.00969 24.596156,-24.595159 0,-13.58547 -11.011685,-24.600149 -24.597155,-24.600149 z m 0,8.632506 c 8.818131,0 15.967642,7.148515 15.967642,15.967643 0,8.818131 -7.149511,15.967642 -15.967642,15.967642 -8.819129,0 -15.967642,-7.149511 -15.967642,-15.967642 0,-8.819128 7.148513,-15.967643 15.967642,-15.967643 z"
     id="path95"
     style="stroke-width:0.997981" />
</svg>
