<?xml version="1.0" encoding="UTF-8" standalone="no"?>
<svg
   xmlns:dc="http://purl.org/dc/elements/1.1/"
   xmlns:cc="http://creativecommons.org/ns#"
   xmlns:rdf="http://www.w3.org/1999/02/22-rdf-syntax-ns#"
   xmlns:svg="http://www.w3.org/2000/svg"
   xmlns="http://www.w3.org/2000/svg"
   xmlns:xlink="http://www.w3.org/1999/xlink"
   xmlns:sodipodi="http://sodipodi.sourceforge.net/DTD/sodipodi-0.dtd"
   xmlns:inkscape="http://www.inkscape.org/namespaces/inkscape"
   width="132"
   height="132"
   version="1.1"
   id="svg97"
   sodipodi:docname="Instagram_logo_2016.svg"
   inkscape:version="1.0.1 (3bc2e813f5, 2020-09-07)">
  <metadata
     id="metadata101">
    <rdf:RDF>
      <cc:Work
         rdf:about="">
        <dc:format>image/svg+xml</dc:format>
        <dc:type
           rdf:resource="http://purl.org/dc/dcmitype/StillImage" />
        <dc:title></dc:title>
      </cc:Work>
    </rdf:RDF>
  </metadata>
  <sodipodi:namedview
     pagecolor="#ffffff"
     bordercolor="#666666"
     borderopacity="1"
     objecttolerance="10"
     gridtolerance="10"
     guidetolerance="10"
     inkscape:pageopacity="0"
     inkscape:pageshadow="2"
     inkscape:window-width="1920"
     inkscape:window-height="991"
     id="namedview99"
     showgrid="false"
     inkscape:zoom="3.1060606"
     inkscape:cx="56.118957"
     inkscape:cy="68.219117"
     inkscape:window-x="-9"
     inkscape:window-y="-9"
     inkscape:window-maximized="1"
     inkscape:current-layer="svg97" />
  <defs
     id="defs89">
    <linearGradient
       id="b">
      <stop
         offset="0"
         stop-color="#3771c8"
         id="stop71" />
      <stop
         stop-color="#3771c8"
         offset=".128"
         id="stop73" />
      <stop
         offset="1"
         stop-color="#60f"
         stop-opacity="0"
         id="stop75" />
    </linearGradient>
    <linearGradient
       id="a">
      <stop
         offset="0"
         stop-color="#fd5"
         id="stop78" />
      <stop
         offset=".1"
         stop-color="#fd5"
         id="stop80" />
      <stop
         offset=".5"
         stop-color="#ff543e"
         id="stop82" />
      <stop
         offset="1"
         stop-color="#c837ab"
         id="stop84" />
    </linearGradient>
    <radialGradient
       id="c"
       cx="158.429"
       cy="578.08801"
       r="65"
       xlink:href="#a"
       gradientUnits="userSpaceOnUse"
       gradientTransform="matrix(0,-1.98198,1.8439,0,-1031.402,454.004)"
       fx="158.429"
       fy="578.08801" />
    <radialGradient
       id="d"
       cx="147.694"
       cy="473.45499"
       r="65"
       xlink:href="#b"
       gradientUnits="userSpaceOnUse"
       gradientTransform="matrix(0.17394,0.86872,-3.5818,0.71718,1648.348,-458.493)"
       fx="147.694"
       fy="473.45499" />
  </defs>
  <rect
     style="fill:#000000"
     id="rect105"
     width="135.22641"
     height="134.7711"
     x="-1.613205"
     y="-1.3855515" />
  <path
     fill="#ffffff"
     d="m 66.005396,8.4385336 c -15.632734,0 -17.594621,0.068354 -23.73451,0.3477672 -6.127898,0.2806121 -10.310697,1.2507622 -13.970647,2.6742092 -3.785866,1.470216 -6.997319,3.436899 -10.196777,6.637557 -3.201856,3.199458 -5.16854,6.410908 -6.643552,10.195574 -1.427045,3.661149 -2.3983946,7.845148 -2.6742099,13.970647 -0.2746162,6.139889 -0.346568,8.102975 -0.346568,23.735709 0,15.632734 0.069553,17.588624 0.3477672,23.728514 0.2818113,6.127897 1.2519617,10.310699 2.6742097,13.970649 1.471415,3.78587 3.438098,6.99732 6.638755,10.19677 3.198259,3.20186 6.409713,5.17334 10.19318,6.64356 3.662348,1.42344 7.846347,2.39359 13.973045,2.67421 6.139889,0.27941 8.100577,0.34776 23.732111,0.34776 15.633934,0 17.589824,-0.0683 23.729714,-0.34776 6.127897,-0.28062 10.315496,-1.25077 13.977846,-2.67421 3.78466,-1.47022 6.99132,-3.4417 10.18957,-6.64356 3.20186,-3.19945 5.16854,-6.4109 6.64356,-10.19557 1.41505,-3.66115 2.3864,-7.845151 2.67421,-13.97065 0.27581,-6.13989 0.34776,-8.096979 0.34776,-23.729713 0,-15.632734 -0.072,-17.594621 -0.34776,-23.73451 -0.28781,-6.127898 -1.25916,-10.310697 -2.67421,-13.970647 -1.47502,-3.785865 -3.4417,-6.997315 -6.64356,-10.196773 -3.20185,-3.201857 -6.40371,-5.16854 -10.19317,-6.637557 C 100.03261,10.037063 95.847417,9.0669129 89.719519,8.7863008 83.57963,8.5068878 81.624938,8.4385336 65.987409,8.4385336 Z M 60.841653,18.811589 c 1.532574,-0.0024 3.242629,0 5.163743,0 15.36891,0 17.190492,0.05516 23.259627,0.330978 5.612243,0.256629 8.658204,1.194401 10.687247,1.982273 2.6862,1.043302 4.60132,2.290467 6.61477,4.305118 2.01465,2.014651 3.26182,3.933367 4.30752,6.619568 0.78787,2.026643 1.72684,5.072604 1.98227,10.684847 0.27582,6.067937 0.33578,7.890717 0.33578,23.252433 0,15.361715 -0.06,17.184495 -0.33578,23.252432 -0.25663,5.612243 -1.1944,8.658204 -1.98227,10.684847 -1.0433,2.686205 -2.29287,4.598925 -4.30752,6.612375 -2.01465,2.01465 -3.92737,3.26182 -6.61477,4.30512 -2.026644,0.79147 -5.075003,1.72684 -10.687247,1.98347 -6.067937,0.27582 -7.890717,0.33578 -23.259627,0.33578 -15.37011,0 -17.191691,-0.06 -23.259628,-0.33578 -5.612243,-0.25903 -8.658204,-1.1968 -10.688444,-1.98467 -2.686202,-1.0433 -4.604918,-2.29047 -6.619569,-4.30512 -2.014651,-2.01465 -3.261818,-3.92857 -4.307518,-6.615972 -0.787873,-2.026643 -1.726845,-5.072604 -1.982273,-10.684847 -0.275816,-6.067937 -0.330979,-7.890717 -0.330979,-23.262026 0,-15.371309 0.05516,-17.184495 0.330979,-23.252433 0.256628,-5.612242 1.1944,-8.658203 1.982273,-10.687245 1.043301,-2.686201 2.292867,-4.604917 4.307518,-6.619568 2.014651,-2.014651 3.933368,-3.261816 6.619569,-4.307516 2.029041,-0.79147 5.076201,-1.726844 10.688444,-1.984671 5.310045,-0.23984 7.367867,-0.311791 18.095885,-0.323783 z m 35.889572,9.557601 c -3.813447,0 -6.907376,3.090331 -6.907376,6.904977 0,3.813447 3.093929,6.907376 6.907376,6.907376 3.813445,0 6.907375,-3.093929 6.907375,-6.907376 0,-3.813447 -3.09393,-6.907375 -6.907375,-6.907375 z m -30.725829,8.070597 c -16.324671,0 -29.56021,13.235539 -29.56021,29.56021 0,16.32467 13.235539,29.554213 29.56021,29.554213 16.32467,0 29.555412,-13.229543 29.555412,-29.554213 0,-16.324671 -13.231941,-29.56021 -29.556612,-29.56021 z m 0,10.373055 c 10.596106,0 19.187154,8.58985 19.187154,19.187155 0,10.596106 -8.591048,19.187154 -19.187154,19.187154 -10.597306,0 -19.187155,-8.591048 -19.187155,-19.187154 0,-10.597305 8.589849,-19.187155 19.187155,-19.187155 z"
     id="path95"
     style="stroke-width:1.1992" />
</svg>
