<?xml version="1.0" encoding="UTF-8" standalone="no"?>
<svg
   xmlns:dc="http://purl.org/dc/elements/1.1/"
   xmlns:cc="http://creativecommons.org/ns#"
   xmlns:rdf="http://www.w3.org/1999/02/22-rdf-syntax-ns#"
   xmlns:svg="http://www.w3.org/2000/svg"
   xmlns="http://www.w3.org/2000/svg"
   xmlns:sodipodi="http://sodipodi.sourceforge.net/DTD/sodipodi-0.dtd"
   xmlns:inkscape="http://www.inkscape.org/namespaces/inkscape"
   id="icons"
   viewBox="0 0 512 512"
   version="1.1"
   sodipodi:docname="tiktok-icon.svg"
   inkscape:version="1.0.1 (3bc2e813f5, 2020-09-07)">
  <metadata
     id="metadata993">
    <rdf:RDF>
      <cc:Work
         rdf:about="">
        <dc:format>image/svg+xml</dc:format>
        <dc:type
           rdf:resource="http://purl.org/dc/dcmitype/StillImage" />
      </cc:Work>
    </rdf:RDF>
  </metadata>
  <defs
     id="defs991" />
  <sodipodi:namedview
     pagecolor="#ffffff"
     bordercolor="#666666"
     borderopacity="1"
     objecttolerance="10"
     gridtolerance="10"
     guidetolerance="10"
     inkscape:pageopacity="0"
     inkscape:pageshadow="2"
     inkscape:window-width="1920"
     inkscape:window-height="991"
     id="namedview989"
     showgrid="false"
     inkscape:zoom="0.80078125"
     inkscape:cx="172.20958"
     inkscape:cy="344.11646"
     inkscape:window-x="-9"
     inkscape:window-y="-9"
     inkscape:window-maximized="1"
     inkscape:current-layer="icons" />
  <path
     id="rect995"
     style="fill:#000000;stroke:#000000;stroke-width:5;stroke-miterlimit:10"
     d="M -9.3652344 -8.7421875 L -9.3652344 520.74219 L 521.36523 520.74219 L 521.36523 -8.7421875 L -9.3652344 -8.7421875 z M 264.35938 84.671875 L 323.20898 84.671875 C 323.11618 84.671875 322.50155 90.309459 323.98633 99.025391 L 323.91406 99.025391 C 325.69151 109.52591 330.51708 124.52506 343.4375 139.30859 A 94.847313 94.847313 0 0 0 360.76367 154.02734 A 78.000797 78.000797 0 0 0 367.50781 157.95312 C 382.55546 165.45552 397.2539 167.74029 404.49219 166.95508 L 404.49219 225.375 C 404.49219 225.375 383.83318 224.51807 368.5 220.44922 C 347.12777 214.7314 333.42969 205.95117 333.42969 205.95117 C 333.42969 205.95117 323.92281 199.66268 323.20898 199.23438 L 323.20898 319.95898 C 323.20898 326.66903 321.43067 343.45677 316.10547 357.45508 A 113.11436 113.11436 0 0 1 296.375 390.24219 C 296.375 390.24219 283.24108 406.52431 260.16992 417.45312 C 239.36875 427.31119 221.05196 427.09122 215.58398 427.3125 C 215.58398 427.3125 183.99503 428.58187 155.50586 409.22266 L 155.36328 409.08008 L 155.36328 409.22266 A 119.58885 119.58885 0 0 1 129.87305 385.17383 C 120.85731 373.67395 115.32415 360.03264 113.89648 356.03516 L 113.89648 355.89258 C 111.62648 349.104 106.86624 332.67849 107.58008 316.82422 C 108.71507 288.89183 118.08813 271.68145 120.57227 267.39844 A 115.49143 115.49143 0 0 1 145.76953 236.32617 A 109.31676 109.31676 0 0 1 230.00195 211.68359 L 229.93164 271.60352 A 49.183261 49.183261 0 0 0 214.64844 269.18359 C 187.23003 269.18359 165.00781 291.54119 165.00781 319.15234 C 165.00781 346.76349 187.23003 369.11914 214.64844 369.11914 A 49.111878 49.111878 0 0 0 238.99609 362.69531 A 49.96848 49.96848 0 0 0 264.13867 323.03516 L 264.13867 322.90625 C 264.17437 322.73493 264.17383 322.56457 264.17383 322.40039 C 264.19523 322.00064 264.23047 321.65636 264.23047 321.28516 C 264.35896 318.30134 264.35938 315.28178 264.35938 312.22656 L 264.35938 84.671875 z " />
</svg>
