<?xml version="1.0" encoding="UTF-8" standalone="no"?>
<svg
   xmlns:dc="http://purl.org/dc/elements/1.1/"
   xmlns:cc="http://creativecommons.org/ns#"
   xmlns:rdf="http://www.w3.org/1999/02/22-rdf-syntax-ns#"
   xmlns:svg="http://www.w3.org/2000/svg"
   xmlns="http://www.w3.org/2000/svg"
   xmlns:sodipodi="http://sodipodi.sourceforge.net/DTD/sodipodi-0.dtd"
   xmlns:inkscape="http://www.inkscape.org/namespaces/inkscape"
   height="900"
   width="900"
   viewBox="-35.20005 -41.33325 228.80032 278.99943"
   version="1.1"
   id="svg26"
   sodipodi:docname="YouTube-Icon-Almost-Black-Logo.wine.svg"
   inkscape:version="1.0.1 (3bc2e813f5, 2020-09-07)">
  <metadata
     id="metadata32">
    <rdf:RDF>
      <cc:Work
         rdf:about="">
        <dc:format>image/svg+xml</dc:format>
        <dc:type
           rdf:resource="http://purl.org/dc/dcmitype/StillImage" />
        <dc:title></dc:title>
      </cc:Work>
    </rdf:RDF>
  </metadata>
  <defs
     id="defs30" />
  <sodipodi:namedview
     pagecolor="#ffffff"
     bordercolor="#666666"
     borderopacity="1"
     objecttolerance="10"
     gridtolerance="10"
     guidetolerance="10"
     inkscape:pageopacity="0"
     inkscape:pageshadow="2"
     inkscape:window-width="1920"
     inkscape:window-height="991"
     id="namedview28"
     showgrid="false"
     inkscape:zoom="0.69915183"
     inkscape:cx="476.47136"
     inkscape:cy="441.79432"
     inkscape:window-x="-9"
     inkscape:window-y="-9"
     inkscape:window-maximized="1"
     inkscape:current-layer="svg26" />
  <path
     id="rect35"
     style="fill:#000000;stroke-width:0.999999"
     d="M -11.988281 -6.2675781 L -11.988281 906.26758 L 911.98828 906.26758 L 911.98828 -6.2675781 L -11.988281 -6.2675781 z M 449.99805 183.33398 C 449.99805 183.33398 686.71762 183.33325 745.75 199.25586 C 778.32103 208.01717 803.96931 233.83257 812.67578 266.61328 C 828.49517 326.03276 828.49609 450.00195 828.49609 450.00195 C 828.49609 450.00195 828.49517 573.96665 812.67578 633.39258 C 803.96931 666.16684 778.32103 691.98351 745.75 700.74805 C 686.71762 716.66743 449.99805 716.66602 449.99805 716.66602 C 449.99805 716.66602 213.28238 716.66743 154.25 700.74805 C 121.67897 691.98351 96.027459 666.16938 87.324219 633.38867 C 71.504828 573.9692 71.503906 450.00195 71.503906 450.00195 C 71.503906 450.00195 71.504828 326.03276 87.324219 266.61328 C 96.027459 233.83257 121.67897 208.01717 154.25 199.25586 C 213.28238 183.33325 449.99805 183.33398 449.99805 183.33398 z M 372.57812 337.44727 L 372.57812 562.55273 L 570.43164 450.00391 L 372.57812 337.44727 z "
     transform="matrix(0.30999937,0,0,0.30999937,-60.299605,-41.33325)" />
</svg>
